<svg width="224" height="75" viewBox="0 0 224 75" fill="none" xmlns="http://www.w3.org/2000/svg">
<path d="M38.9219 57H34.3047V36.6562H21.4375V57H16.8438V32.0391H21.4375V36.4453C21.4688 35.8359 21.6094 35.2656 21.8594 34.7344C22.1094 34.1875 22.4375 33.7188 22.8438 33.3281C23.2656 32.9219 23.75 32.6094 24.2969 32.3906C24.8438 32.1562 25.4297 32.0391 26.0547 32.0391H34.3047C34.9453 32.0391 35.5469 32.1641 36.1094 32.4141C36.6719 32.6484 37.1562 32.9766 37.5625 33.3984C37.9844 33.8047 38.3125 34.2891 38.5469 34.8516C38.7969 35.4141 38.9219 36.0156 38.9219 36.6562V57ZM67.7266 46.875H51.2031V52.3828H67.7266V57H51.2031C50.5781 57 49.9844 56.8828 49.4219 56.6484C48.8594 56.3984 48.3672 56.0703 47.9453 55.6641C47.5391 55.2422 47.2109 54.75 46.9609 54.1875C46.7266 53.625 46.6094 53.0234 46.6094 52.3828V36.6562C46.6094 36.0156 46.7266 35.4141 46.9609 34.8516C47.2109 34.2891 47.5391 33.8047 47.9453 33.3984C48.3672 32.9766 48.8594 32.6484 49.4219 32.4141C49.9844 32.1641 50.5781 32.0391 51.2031 32.0391H63.1094C63.75 32.0391 64.3516 32.1641 64.9141 32.4141C65.4766 32.6484 65.9609 32.9766 66.3672 33.3984C66.7891 33.8047 67.1172 34.2891 67.3516 34.8516C67.6016 35.4141 67.7266 36.0156 67.7266 36.6562V46.875ZM51.2031 36.6562V42.2578H63.1094V36.6562H51.2031ZM91.9375 57L80.0312 46.3359V57H75.4375V22.4297H80.0312V41.8828L90.9766 32.0391H97.4688L84.0625 44.0859L98.4297 57H91.9375Z" fill="#7CFF4F"/>
<path d="M122.922 52.3828C122.922 53.0234 122.797 53.625 122.547 54.1875C122.312 54.75 121.984 55.2422 121.562 55.6641C121.156 56.0703 120.672 56.3984 120.109 56.6484C119.547 56.8828 118.945 57 118.305 57H105.438C104.812 57 104.219 56.8828 103.656 56.6484C103.094 56.3984 102.602 56.0703 102.18 55.6641C101.773 55.2422 101.445 54.75 101.195 54.1875C100.961 53.625 100.844 53.0234 100.844 52.3828V22.4297H105.438V36.4453C105.469 35.8359 105.609 35.2656 105.859 34.7344C106.109 34.1875 106.438 33.7188 106.844 33.3281C107.266 32.9219 107.75 32.6094 108.297 32.3906C108.844 32.1562 109.43 32.0391 110.055 32.0391H118.305C118.945 32.0391 119.547 32.1641 120.109 32.4141C120.672 32.6484 121.156 32.9766 121.562 33.3984C121.984 33.8047 122.312 34.2891 122.547 34.8516C122.797 35.4141 122.922 36.0156 122.922 36.6562V52.3828ZM105.438 36.6562V52.3828H118.305V36.6562H105.438ZM151.727 46.875H135.203V52.3828H151.727V57H135.203C134.578 57 133.984 56.8828 133.422 56.6484C132.859 56.3984 132.367 56.0703 131.945 55.6641C131.539 55.2422 131.211 54.75 130.961 54.1875C130.727 53.625 130.609 53.0234 130.609 52.3828V36.6562C130.609 36.0156 130.727 35.4141 130.961 34.8516C131.211 34.2891 131.539 33.8047 131.945 33.3984C132.367 32.9766 132.859 32.6484 133.422 32.4141C133.984 32.1641 134.578 32.0391 135.203 32.0391H147.109C147.75 32.0391 148.352 32.1641 148.914 32.4141C149.477 32.6484 149.961 32.9766 150.367 33.3984C150.789 33.8047 151.117 34.2891 151.352 34.8516C151.602 35.4141 151.727 36.0156 151.727 36.6562V46.875ZM135.203 36.6562V42.2578H147.109V36.6562H135.203ZM157.984 32.0391H164.078V24.3516H168.695V32.0391H176.898V36.6562H168.695V52.3828H176.898V57H168.695C168.07 57 167.477 56.8828 166.914 56.6484C166.352 56.3984 165.859 56.0703 165.438 55.6641C165.016 55.2422 164.68 54.75 164.43 54.1875C164.195 53.625 164.078 53.0234 164.078 52.3828V36.6562H157.984V32.0391ZM199.68 52.3828V46.5938H188.734C188.094 46.5938 187.492 46.4766 186.93 46.2422C186.367 45.9922 185.875 45.6641 185.453 45.2578C185.047 44.8359 184.719 44.3438 184.469 43.7812C184.234 43.2188 184.117 42.6172 184.117 41.9766V36.6562C184.117 36.0156 184.234 35.4141 184.469 34.8516C184.719 34.2891 185.047 33.8047 185.453 33.3984C185.875 32.9766 186.367 32.6484 186.93 32.4141C187.492 32.1641 188.094 32.0391 188.734 32.0391H203.336V36.6562H188.734V41.9766H199.68C200.32 41.9766 200.914 42.1016 201.461 42.3516C202.023 42.5859 202.516 42.9141 202.938 43.3359C203.359 43.7422 203.688 44.2266 203.922 44.7891C204.172 45.3516 204.297 45.9531 204.297 46.5938V52.3828C204.297 53.0234 204.172 53.625 203.922 54.1875C203.688 54.75 203.359 55.2422 202.938 55.6641C202.516 56.0703 202.023 56.3984 201.461 56.6484C200.914 56.8828 200.32 57 199.68 57H184.117V52.3828H199.68Z" fill="#A1FF7A"/>
<path d="M29.7373 24.1304L33.4484 31.6123L21.6437 26.1902L29.7373 24.1304Z" fill="#FDFDFD"/>
</svg>
